<?xml version="1.0" encoding="UTF-8" standalone="no"?>
<!DOCTYPE svg PUBLIC "-//W3C//DTD SVG 1.1//EN"
 "http://www.w3.org/Graphics/SVG/1.1/DTD/svg11.dtd">
<!-- Generated by graphviz version 2.28.0 (20110825.1113)
 -->
<!-- Title: G Pages: 1 -->
<svg width="596pt" height="1122pt"
 viewBox="0.00 0.00 596.00 1122.00" xmlns="http://www.w3.org/2000/svg" xmlns:xlink="http://www.w3.org/1999/xlink">
<g id="graph1" class="graph" transform="scale(1 1) rotate(0) translate(4 1118)">
<title>G</title>
<polygon fill="white" stroke="white" points="-4,5 -4,-1118 593,-1118 593,5 -4,5"/>
<g id="graph2" class="cluster"><title>cluster_Textura</title>
<polyline fill="none" stroke="gray" points="20,-8 568,-8 "/>
<path fill="none" stroke="gray" d="M568,-8C574,-8 580,-14 580,-20"/>
<polyline fill="none" stroke="gray" points="580,-20 580,-1094 "/>
<path fill="none" stroke="gray" d="M580,-1094C580,-1100 574,-1106 568,-1106"/>
<polyline fill="none" stroke="gray" points="568,-1106 20,-1106 "/>
<path fill="none" stroke="gray" d="M20,-1106C14,-1106 8,-1100 8,-1094"/>
<polyline fill="none" stroke="gray" points="8,-1094 8,-20 "/>
<path fill="none" stroke="gray" d="M8,-20C8,-14 14,-8 20,-8"/>
<text text-anchor="middle" x="294" y="-1093.2" font-family="Times,serif" font-size="11.00" fill="gray">Textura</text>
</g>
<g id="graph3" class="cluster"><title>cluster_Textura\Model</title>
<polyline fill="none" stroke="gray" points="28,-844 296,-844 "/>
<path fill="none" stroke="gray" d="M296,-844C302,-844 308,-850 308,-856"/>
<polyline fill="none" stroke="gray" points="308,-856 308,-1066 "/>
<path fill="none" stroke="gray" d="M308,-1066C308,-1072 302,-1078 296,-1078"/>
<polyline fill="none" stroke="gray" points="296,-1078 28,-1078 "/>
<path fill="none" stroke="gray" d="M28,-1078C22,-1078 16,-1072 16,-1066"/>
<polyline fill="none" stroke="gray" points="16,-1066 16,-856 "/>
<path fill="none" stroke="gray" d="M16,-856C16,-850 22,-844 28,-844"/>
<text text-anchor="middle" x="162" y="-1065.2" font-family="Times,serif" font-size="11.00" fill="gray">Model</text>
</g>
<!-- \\Textura\\Model\\SQLiteLogger -->
<g id="node3" class="node"><title>\\Textura\\Model\\SQLiteLogger</title>
<a xlink:href="src.textura.core.classes.model.SQLiteLogger.html" xlink:title="SQLiteLogger" target="_parent">
<polygon fill="none" stroke="black" points="290,-1050 192,-1050 192,-1014 290,-1014 290,-1050"/>
<text text-anchor="middle" x="241" y="-1029.2" font-family="Courier,monospace" font-size="11.00">SQLiteLogger</text>
</a>
</g>
<!-- \\Textura\\Model\\ModelManager -->
<g id="node4" class="node"><title>\\Textura\\Model\\ModelManager</title>
<a xlink:href="src.textura.core.classes.model.ModelManager.html" xlink:title="ModelManager" target="_parent">
<polygon fill="none" stroke="black" points="290,-942 192,-942 192,-906 290,-906 290,-942"/>
<text text-anchor="middle" x="241" y="-921.2" font-family="Courier,monospace" font-size="11.00">ModelManager</text>
</a>
</g>
<!-- \\Textura\\Singleton -->
<g id="node20" class="node"><title>\\Textura\\Singleton</title>
<a xlink:href="src.textura.core.interfaces.Singleton.html" xlink:title="Singleton" target="_parent">
<polygon fill="none" stroke="black" points="105.5,-781 28.5,-781 28.5,-745 105.5,-745 105.5,-781"/>
<text text-anchor="middle" x="67" y="-760.2" font-family="Courier,monospace" font-size="11.00">Singleton</text>
</a>
</g>
<!-- \\Textura\\Model\\ModelManager&#45;&gt;\\Textura\\Singleton -->
<g id="edge21" class="edge"><title>\\Textura\\Model\\ModelManager&#45;&gt;\\Textura\\Singleton</title>
<path fill="none" stroke="black" stroke-dasharray="1,5" d="M195.753,-905.888C190.932,-903.198 186.242,-900.23 182,-897 141.698,-866.313 105.77,-819.149 85.4628,-789.735"/>
<polygon fill="none" stroke="black" points="88.1889,-787.519 79.6744,-781.214 82.3986,-791.453 88.1889,-787.519"/>
</g>
<!-- \\Textura\\Model\\DBManager -->
<g id="node5" class="node"><title>\\Textura\\Model\\DBManager</title>
<a xlink:href="src.textura.core.classes.model.DBManager.html" xlink:title="DBManager" target="_parent">
<polygon fill="none" stroke="black" points="279.5,-888 202.5,-888 202.5,-852 279.5,-852 279.5,-888"/>
<text text-anchor="middle" x="241" y="-867.2" font-family="Courier,monospace" font-size="11.00">DBManager</text>
</a>
</g>
<!-- \\Textura\\Model\\DBManager&#45;&gt;\\Textura\\Singleton -->
<g id="edge23" class="edge"><title>\\Textura\\Model\\DBManager&#45;&gt;\\Textura\\Singleton</title>
<path fill="none" stroke="black" stroke-dasharray="1,5" d="M202.492,-857.529C195.523,-854.724 188.421,-851.521 182,-848 150.769,-830.873 118.53,-806.051 96.3395,-787.649"/>
<polygon fill="none" stroke="black" points="98.549,-784.934 88.6393,-781.186 94.0487,-790.296 98.549,-784.934"/>
</g>
<!-- \\Textura\\Model\\SQLiteDBAdapter -->
<g id="node6" class="node"><title>\\Textura\\Model\\SQLiteDBAdapter</title>
<a xlink:href="src.textura.core.classes.model.SQLiteDBAdapter.html" xlink:title="SQLiteDBAdapter" target="_parent">
<polygon fill="none" stroke="black" points="300,-996 182,-996 182,-960 300,-960 300,-996"/>
<text text-anchor="middle" x="241" y="-975.2" font-family="Courier,monospace" font-size="11.00">SQLiteDBAdapter</text>
</a>
</g>
<!-- \\Textura\\Model\\DBAdapter -->
<g id="node7" class="node"><title>\\Textura\\Model\\DBAdapter</title>
<a xlink:href="src.textura.core.classes.model.DBAdapter.html" xlink:title="«abstract»&lt;br/&gt;DBAdapter" target="_parent">
<polygon fill="none" stroke="black" points="109.5,-996 24.5,-996 24.5,-960 109.5,-960 109.5,-996"/>
<text text-anchor="start" x="33" y="-981.7" font-family="Courier,monospace" font-size="11.00">«abstract»</text>
<text text-anchor="start" x="36.5" y="-970.7" font-family="Courier,monospace" font-size="11.00">DBAdapter</text>
</a>
</g>
<!-- \\Textura\\Model\\SQLiteDBAdapter&#45;&gt;\\Textura\\Model\\DBAdapter -->
<g id="edge15" class="edge"><title>\\Textura\\Model\\SQLiteDBAdapter&#45;&gt;\\Textura\\Model\\DBAdapter</title>
<path fill="none" stroke="black" d="M181.769,-978C161.694,-978 139.358,-978 119.83,-978"/>
<polygon fill="none" stroke="black" points="119.602,-974.5 109.602,-978 119.602,-981.5 119.602,-974.5"/>
</g>
<!-- \\Textura\\ValidationRuleMatchesRegexp -->
<g id="node8" class="node"><title>\\Textura\\ValidationRuleMatchesRegexp</title>
<a xlink:href="src.textura.plugins.FormBuilder.classes.ValidationRuleMatchesRegexp.html" xlink:title="ValidationRuleMatchesRegexp" target="_parent">
<polygon fill="none" stroke="black" points="571.5,-1078 372.5,-1078 372.5,-1042 571.5,-1042 571.5,-1078"/>
<text text-anchor="middle" x="472" y="-1057.2" font-family="Courier,monospace" font-size="11.00">ValidationRuleMatchesRegexp</text>
</a>
</g>
<!-- \\Textura\\ValidationRule -->
<g id="node12" class="node"><title>\\Textura\\ValidationRule</title>
<a xlink:href="src.textura.plugins.FormBuilder.classes.ValidationRule.html" xlink:title="«abstract»&lt;br/&gt;ValidationRule" target="_parent">
<polygon fill="none" stroke="black" points="297,-834 185,-834 185,-798 297,-798 297,-834"/>
<text text-anchor="start" x="207" y="-819.7" font-family="Courier,monospace" font-size="11.00">«abstract»</text>
<text text-anchor="start" x="193.5" y="-808.7" font-family="Courier,monospace" font-size="11.00">ValidationRule</text>
</a>
</g>
<!-- \\Textura\\ValidationRuleMatchesRegexp&#45;&gt;\\Textura\\ValidationRule -->
<g id="edge5" class="edge"><title>\\Textura\\ValidationRuleMatchesRegexp&#45;&gt;\\Textura\\ValidationRule</title>
<path fill="none" stroke="black" d="M383.454,-1041.78C379.348,-1039.22 375.492,-1036.31 372,-1033 306.398,-970.845 370.982,-904.808 308,-840 307.092,-839.066 306.145,-838.167 305.163,-837.304"/>
<polygon fill="none" stroke="black" points="307.176,-834.44 297.045,-831.342 303.033,-840.082 307.176,-834.44"/>
</g>
<!-- \\Textura\\FormBuilder -->
<g id="node9" class="node"><title>\\Textura\\FormBuilder</title>
<a xlink:href="src.textura.plugins.FormBuilder.classes.FormBuilder.html" xlink:title="FormBuilder" target="_parent">
<polygon fill="none" stroke="black" points="517.5,-1024 426.5,-1024 426.5,-988 517.5,-988 517.5,-1024"/>
<text text-anchor="middle" x="472" y="-1003.2" font-family="Courier,monospace" font-size="11.00">FormBuilder</text>
</a>
</g>
<!-- \\Textura\\Validator -->
<g id="node10" class="node"><title>\\Textura\\Validator</title>
<a xlink:href="src.textura.plugins.FormBuilder.classes.Validator.html" xlink:title="Validator" target="_parent">
<polygon fill="none" stroke="black" points="510.5,-970 433.5,-970 433.5,-934 510.5,-934 510.5,-970"/>
<text text-anchor="middle" x="472" y="-949.2" font-family="Courier,monospace" font-size="11.00">Validator</text>
</a>
</g>
<!-- \\Textura\\ValidationRuleInInterval -->
<g id="node11" class="node"><title>\\Textura\\ValidationRuleInInterval</title>
<a xlink:href="src.textura.plugins.FormBuilder.classes.ValidationRuleInInterval.html" xlink:title="ValidationRuleInInterval" target="_parent">
<polygon fill="none" stroke="black" points="561.5,-916 382.5,-916 382.5,-880 561.5,-880 561.5,-916"/>
<text text-anchor="middle" x="472" y="-895.2" font-family="Courier,monospace" font-size="11.00">ValidationRuleInInterval</text>
</a>
</g>
<!-- \\Textura\\ValidationRuleInInterval&#45;&gt;\\Textura\\ValidationRule -->
<g id="edge7" class="edge"><title>\\Textura\\ValidationRuleInInterval&#45;&gt;\\Textura\\ValidationRule</title>
<path fill="none" stroke="black" d="M398.588,-879.923C389.555,-877.179 380.508,-874.189 372,-871 342.406,-859.906 337.112,-852.305 308,-840 306.379,-839.315 304.73,-838.63 303.063,-837.949"/>
<polygon fill="none" stroke="black" points="303.951,-834.536 293.365,-834.094 301.365,-841.041 303.951,-834.536"/>
</g>
<!-- \\Textura\\ValidationRuleHasValue -->
<g id="node13" class="node"><title>\\Textura\\ValidationRuleHasValue</title>
<a xlink:href="src.textura.plugins.FormBuilder.classes.ValidationRuleHasValue.html" xlink:title="ValidationRuleHasValue" target="_parent">
<polygon fill="none" stroke="black" points="554.5,-862 389.5,-862 389.5,-826 554.5,-826 554.5,-862"/>
<text text-anchor="middle" x="472" y="-841.2" font-family="Courier,monospace" font-size="11.00">ValidationRuleHasValue</text>
</a>
</g>
<!-- \\Textura\\ValidationRuleHasValue&#45;&gt;\\Textura\\ValidationRule -->
<g id="edge9" class="edge"><title>\\Textura\\ValidationRuleHasValue&#45;&gt;\\Textura\\ValidationRule</title>
<path fill="none" stroke="black" d="M389.296,-834.01C362.307,-830.71 332.664,-827.086 307.09,-823.959"/>
<polygon fill="none" stroke="black" points="307.488,-820.481 297.137,-822.742 306.638,-827.43 307.488,-820.481"/>
</g>
<!-- \\Textura\\FormBuilderPlugin -->
<g id="node14" class="node"><title>\\Textura\\FormBuilderPlugin</title>
<a xlink:href="src.textura.plugins.FormBuilder.FormBuilderPlugin.html" xlink:title="FormBuilderPlugin" target="_parent">
<polygon fill="none" stroke="black" points="537.5,-754 406.5,-754 406.5,-718 537.5,-718 537.5,-754"/>
<text text-anchor="middle" x="472" y="-733.2" font-family="Courier,monospace" font-size="11.00">FormBuilderPlugin</text>
</a>
</g>
<!-- \\Textura\\Plugin -->
<g id="node19" class="node"><title>\\Textura\\Plugin</title>
<a xlink:href="src.textura.core.interfaces.Plugin.html" xlink:title="Plugin" target="_parent">
<polygon fill="none" stroke="black" points="269.5,-726 212.5,-726 212.5,-690 269.5,-690 269.5,-726"/>
<text text-anchor="middle" x="241" y="-705.2" font-family="Courier,monospace" font-size="11.00">Plugin</text>
</a>
</g>
<!-- \\Textura\\FormBuilderPlugin&#45;&gt;\\Textura\\Plugin -->
<g id="edge17" class="edge"><title>\\Textura\\FormBuilderPlugin&#45;&gt;\\Textura\\Plugin</title>
<path fill="none" stroke="black" stroke-dasharray="1,5" d="M406.296,-728.089C365.423,-723.091 314.036,-716.808 279.718,-712.612"/>
<polygon fill="none" stroke="black" points="279.996,-709.12 269.645,-711.38 279.147,-716.068 279.996,-709.12"/>
</g>
<!-- \\Textura\\ThemeColumn -->
<g id="node15" class="node"><title>\\Textura\\ThemeColumn</title>
<a xlink:href="src.textura.plugins.ThemeBuilder.classes.ThemeColumn.html" xlink:title="ThemeColumn" target="_parent">
<polygon fill="none" stroke="black" points="517.5,-808 426.5,-808 426.5,-772 517.5,-772 517.5,-808"/>
<text text-anchor="middle" x="472" y="-787.2" font-family="Courier,monospace" font-size="11.00">ThemeColumn</text>
</a>
</g>
<!-- \\Textura\\ThemeElement -->
<g id="node17" class="node"><title>\\Textura\\ThemeElement</title>
<a xlink:href="src.textura.plugins.ThemeBuilder.classes.ThemeElement.html" xlink:title="ThemeElement" target="_parent">
<polygon fill="none" stroke="black" points="290,-780 192,-780 192,-744 290,-744 290,-780"/>
<text text-anchor="middle" x="241" y="-759.2" font-family="Courier,monospace" font-size="11.00">ThemeElement</text>
</a>
</g>
<!-- \\Textura\\ThemeColumn&#45;&gt;\\Textura\\ThemeElement -->
<g id="edge11" class="edge"><title>\\Textura\\ThemeColumn&#45;&gt;\\Textura\\ThemeElement</title>
<path fill="none" stroke="black" d="M426.303,-784.535C390.261,-780.128 339.299,-773.897 300.095,-769.103"/>
<polygon fill="none" stroke="black" points="300.493,-765.626 290.142,-767.886 299.643,-772.574 300.493,-765.626"/>
</g>
<!-- \\Textura\\ThemeBuilder -->
<g id="node16" class="node"><title>\\Textura\\ThemeBuilder</title>
<a xlink:href="src.textura.plugins.ThemeBuilder.classes.ThemeBuilder.html" xlink:title="ThemeBuilder" target="_parent">
<polygon fill="none" stroke="black" points="521,-700 423,-700 423,-664 521,-664 521,-700"/>
<text text-anchor="middle" x="472" y="-679.2" font-family="Courier,monospace" font-size="11.00">ThemeBuilder</text>
</a>
</g>
<!-- \\Textura\\ThemeBuilderPlugin -->
<g id="node18" class="node"><title>\\Textura\\ThemeBuilderPlugin</title>
<a xlink:href="src.textura.plugins.ThemeBuilder.ThemeBuilderPlugin.html" xlink:title="ThemeBuilderPlugin" target="_parent">
<polygon fill="none" stroke="black" points="541,-646 403,-646 403,-610 541,-610 541,-646"/>
<text text-anchor="middle" x="472" y="-625.2" font-family="Courier,monospace" font-size="11.00">ThemeBuilderPlugin</text>
</a>
</g>
<!-- \\Textura\\ThemeBuilderPlugin&#45;&gt;\\Textura\\Plugin -->
<g id="edge19" class="edge"><title>\\Textura\\ThemeBuilderPlugin&#45;&gt;\\Textura\\Plugin</title>
<path fill="none" stroke="black" stroke-dasharray="1,5" d="M402.771,-645.443C392.4,-648.43 381.871,-651.656 372,-655 369.629,-655.803 316.744,-677.411 279.167,-692.784"/>
<polygon fill="none" stroke="black" points="277.437,-689.711 269.507,-696.737 280.088,-696.189 277.437,-689.711"/>
</g>
<!-- \\Textura\\Plugin&#45;&gt;\\Textura\\Singleton -->
<g id="edge13" class="edge"><title>\\Textura\\Plugin&#45;&gt;\\Textura\\Singleton</title>
<path fill="none" stroke="black" d="M212.365,-716.837C186.23,-725.194 146.479,-737.905 115.302,-747.874"/>
<polygon fill="none" stroke="black" points="113.968,-744.626 105.509,-751.006 116.1,-751.294 113.968,-744.626"/>
</g>
<!-- \\Textura\\Response -->
<g id="node21" class="node"><title>\\Textura\\Response</title>
<a xlink:href="src.textura.core.classes.Response.html" xlink:title="Response" target="_parent">
<polygon fill="none" stroke="black" points="507.5,-592 436.5,-592 436.5,-556 507.5,-556 507.5,-592"/>
<text text-anchor="middle" x="472" y="-571.2" font-family="Courier,monospace" font-size="11.00">Response</text>
</a>
</g>
<!-- \\Textura\\Controller -->
<g id="node22" class="node"><title>\\Textura\\Controller</title>
<a xlink:href="src.textura.core.classes.Controller.html" xlink:title="«abstract»&lt;br/&gt;Controller" target="_parent">
<polygon fill="none" stroke="black" points="514.5,-538 429.5,-538 429.5,-502 514.5,-502 514.5,-538"/>
<text text-anchor="start" x="438" y="-523.7" font-family="Courier,monospace" font-size="11.00">«abstract»</text>
<text text-anchor="start" x="438" y="-512.7" font-family="Courier,monospace" font-size="11.00">Controller</text>
</a>
</g>
<!-- \\Textura\\FileLogger -->
<g id="node23" class="node"><title>\\Textura\\FileLogger</title>
<a xlink:href="src.textura.core.classes.FileLogger.html" xlink:title="FileLogger" target="_parent">
<polygon fill="none" stroke="black" points="514,-484 430,-484 430,-448 514,-448 514,-484"/>
<text text-anchor="middle" x="472" y="-463.2" font-family="Courier,monospace" font-size="11.00">FileLogger</text>
</a>
</g>
<!-- \\Textura\\Session -->
<g id="node24" class="node"><title>\\Textura\\Session</title>
<a xlink:href="src.textura.core.classes.Session.html" xlink:title="Session" target="_parent">
<polygon fill="none" stroke="black" points="504,-430 440,-430 440,-394 504,-394 504,-430"/>
<text text-anchor="middle" x="472" y="-409.2" font-family="Courier,monospace" font-size="11.00">Session</text>
</a>
</g>
<!-- \\Textura\\Router -->
<g id="node25" class="node"><title>\\Textura\\Router</title>
<a xlink:href="src.textura.core.classes.Router.html" xlink:title="Router" target="_parent">
<polygon fill="none" stroke="black" points="500.5,-376 443.5,-376 443.5,-340 500.5,-340 500.5,-376"/>
<text text-anchor="middle" x="472" y="-355.2" font-family="Courier,monospace" font-size="11.00">Router</text>
</a>
</g>
<!-- \\Textura\\Current -->
<g id="node26" class="node"><title>\\Textura\\Current</title>
<a xlink:href="src.textura.core.classes.Current.html" xlink:title="Current" target="_parent">
<polygon fill="none" stroke="black" points="504,-322 440,-322 440,-286 504,-286 504,-322"/>
<text text-anchor="middle" x="472" y="-301.2" font-family="Courier,monospace" font-size="11.00">Current</text>
</a>
</g>
<!-- \\Textura\\Model -->
<g id="node27" class="node"><title>\\Textura\\Model</title>
<a xlink:href="src.textura.core.classes.Model.html" xlink:title="«abstract»&lt;br/&gt;Model" target="_parent">
<polygon fill="none" stroke="black" points="514.5,-268 429.5,-268 429.5,-232 514.5,-232 514.5,-268"/>
<text text-anchor="start" x="438" y="-253.7" font-family="Courier,monospace" font-size="11.00">«abstract»</text>
<text text-anchor="start" x="455" y="-242.7" font-family="Courier,monospace" font-size="11.00">Model</text>
</a>
</g>
<!-- \\Textura\\Request -->
<g id="node28" class="node"><title>\\Textura\\Request</title>
<a xlink:href="src.textura.core.classes.Request.html" xlink:title="Request" target="_parent">
<polygon fill="none" stroke="black" points="504,-214 440,-214 440,-178 504,-178 504,-214"/>
<text text-anchor="middle" x="472" y="-193.2" font-family="Courier,monospace" font-size="11.00">Request</text>
</a>
</g>
<!-- \\Textura\\Textura -->
<g id="node29" class="node"><title>\\Textura\\Textura</title>
<a xlink:href="src.textura.core.classes.Textura.html" xlink:title="Textura" target="_parent">
<polygon fill="none" stroke="black" points="273,-672 209,-672 209,-636 273,-636 273,-672"/>
<text text-anchor="middle" x="241" y="-651.2" font-family="Courier,monospace" font-size="11.00">Textura</text>
</a>
</g>
<!-- \\Textura\\Textura&#45;&gt;\\Textura\\Singleton -->
<g id="edge25" class="edge"><title>\\Textura\\Textura&#45;&gt;\\Textura\\Singleton</title>
<path fill="none" stroke="black" stroke-dasharray="1,5" d="M208.747,-667.242C199.925,-671.328 190.435,-676.062 182,-681 152.523,-698.256 121.166,-721.184 98.8155,-738.408"/>
<polygon fill="none" stroke="black" points="96.4605,-735.805 90.7131,-744.706 100.756,-741.332 96.4605,-735.805"/>
</g>
<!-- \\Textura\\Configuration -->
<g id="node30" class="node"><title>\\Textura\\Configuration</title>
<a xlink:href="src.textura.core.classes.Configuration.html" xlink:title="Configuration" target="_parent">
<polygon fill="none" stroke="black" points="524,-160 420,-160 420,-124 524,-124 524,-160"/>
<text text-anchor="middle" x="472" y="-139.2" font-family="Courier,monospace" font-size="11.00">Configuration</text>
</a>
</g>
<!-- \\Textura\\Debugger -->
<g id="node31" class="node"><title>\\Textura\\Debugger</title>
<a xlink:href="src.textura.core.classes.Debugger.html" xlink:title="Debugger" target="_parent">
<polygon fill="none" stroke="black" points="507.5,-106 436.5,-106 436.5,-70 507.5,-70 507.5,-106"/>
<text text-anchor="middle" x="472" y="-85.2" font-family="Courier,monospace" font-size="11.00">Debugger</text>
</a>
</g>
<!-- \\Textura\\PathBuilder -->
<g id="node32" class="node"><title>\\Textura\\PathBuilder</title>
<a xlink:href="src.textura.core.classes.PathBuilder.html" xlink:title="PathBuilder" target="_parent">
<polygon fill="none" stroke="black" points="517.5,-52 426.5,-52 426.5,-16 517.5,-16 517.5,-52"/>
<text text-anchor="middle" x="472" y="-31.2" font-family="Courier,monospace" font-size="11.00">PathBuilder</text>
</a>
</g>
</g>
</svg>
