<?xml version="1.0" encoding="UTF-8" standalone="no"?>
<!DOCTYPE svg PUBLIC "-//W3C//DTD SVG 1.1//EN"
 "http://www.w3.org/Graphics/SVG/1.1/DTD/svg11.dtd">
<!-- Generated by graphviz version 2.28.0 (20110825.1113)
 -->
<!-- Title: G Pages: 1 -->
<svg width="596pt" height="1176pt"
 viewBox="0.00 0.00 596.00 1176.00" xmlns="http://www.w3.org/2000/svg" xmlns:xlink="http://www.w3.org/1999/xlink">
<g id="graph1" class="graph" transform="scale(1 1) rotate(0) translate(4 1172)">
<title>G</title>
<polygon fill="white" stroke="white" points="-4,5 -4,-1172 593,-1172 593,5 -4,5"/>
<g id="graph2" class="cluster"><title>cluster_Textura</title>
<polyline fill="none" stroke="gray" points="20,-8 568,-8 "/>
<path fill="none" stroke="gray" d="M568,-8C574,-8 580,-14 580,-20"/>
<polyline fill="none" stroke="gray" points="580,-20 580,-1148 "/>
<path fill="none" stroke="gray" d="M580,-1148C580,-1154 574,-1160 568,-1160"/>
<polyline fill="none" stroke="gray" points="568,-1160 20,-1160 "/>
<path fill="none" stroke="gray" d="M20,-1160C14,-1160 8,-1154 8,-1148"/>
<polyline fill="none" stroke="gray" points="8,-1148 8,-20 "/>
<path fill="none" stroke="gray" d="M8,-20C8,-14 14,-8 20,-8"/>
<text text-anchor="middle" x="294" y="-1147.2" font-family="Times,serif" font-size="11.00" fill="gray">Textura</text>
</g>
<g id="graph3" class="cluster"><title>cluster_Textura\Model</title>
<polyline fill="none" stroke="gray" points="28,-898 296,-898 "/>
<path fill="none" stroke="gray" d="M296,-898C302,-898 308,-904 308,-910"/>
<polyline fill="none" stroke="gray" points="308,-910 308,-1120 "/>
<path fill="none" stroke="gray" d="M308,-1120C308,-1126 302,-1132 296,-1132"/>
<polyline fill="none" stroke="gray" points="296,-1132 28,-1132 "/>
<path fill="none" stroke="gray" d="M28,-1132C22,-1132 16,-1126 16,-1120"/>
<polyline fill="none" stroke="gray" points="16,-1120 16,-910 "/>
<path fill="none" stroke="gray" d="M16,-910C16,-904 22,-898 28,-898"/>
<text text-anchor="middle" x="162" y="-1119.2" font-family="Times,serif" font-size="11.00" fill="gray">Model</text>
</g>
<!-- \\Textura\\Model\\SQLiteLogger -->
<g id="node3" class="node"><title>\\Textura\\Model\\SQLiteLogger</title>
<a xlink:href="src.textura.core.classes.model.SQLiteLogger.html" xlink:title="SQLiteLogger" target="_parent">
<polygon fill="none" stroke="black" points="290,-1104 192,-1104 192,-1068 290,-1068 290,-1104"/>
<text text-anchor="middle" x="241" y="-1083.2" font-family="Courier,monospace" font-size="11.00">SQLiteLogger</text>
</a>
</g>
<!-- \\Textura\\Model\\ModelManager -->
<g id="node4" class="node"><title>\\Textura\\Model\\ModelManager</title>
<a xlink:href="src.textura.core.classes.model.ModelManager.html" xlink:title="ModelManager" target="_parent">
<polygon fill="none" stroke="black" points="290,-996 192,-996 192,-960 290,-960 290,-996"/>
<text text-anchor="middle" x="241" y="-975.2" font-family="Courier,monospace" font-size="11.00">ModelManager</text>
</a>
</g>
<!-- \\Textura\\Singleton -->
<g id="node20" class="node"><title>\\Textura\\Singleton</title>
<a xlink:href="src.textura.core.interfaces.Singleton.html" xlink:title="Singleton" target="_parent">
<polygon fill="none" stroke="black" points="105.5,-835 28.5,-835 28.5,-799 105.5,-799 105.5,-835"/>
<text text-anchor="middle" x="67" y="-814.2" font-family="Courier,monospace" font-size="11.00">Singleton</text>
</a>
</g>
<!-- \\Textura\\Model\\ModelManager&#45;&gt;\\Textura\\Singleton -->
<g id="edge23" class="edge"><title>\\Textura\\Model\\ModelManager&#45;&gt;\\Textura\\Singleton</title>
<path fill="none" stroke="black" stroke-dasharray="1,5" d="M195.753,-959.888C190.932,-957.198 186.242,-954.23 182,-951 141.698,-920.313 105.77,-873.149 85.4628,-843.735"/>
<polygon fill="none" stroke="black" points="88.1889,-841.519 79.6744,-835.214 82.3986,-845.453 88.1889,-841.519"/>
</g>
<!-- \\Textura\\Model\\DBManager -->
<g id="node5" class="node"><title>\\Textura\\Model\\DBManager</title>
<a xlink:href="src.textura.core.classes.model.DBManager.html" xlink:title="DBManager" target="_parent">
<polygon fill="none" stroke="black" points="279.5,-942 202.5,-942 202.5,-906 279.5,-906 279.5,-942"/>
<text text-anchor="middle" x="241" y="-921.2" font-family="Courier,monospace" font-size="11.00">DBManager</text>
</a>
</g>
<!-- \\Textura\\Model\\DBManager&#45;&gt;\\Textura\\Singleton -->
<g id="edge25" class="edge"><title>\\Textura\\Model\\DBManager&#45;&gt;\\Textura\\Singleton</title>
<path fill="none" stroke="black" stroke-dasharray="1,5" d="M202.492,-911.529C195.523,-908.724 188.421,-905.521 182,-902 150.769,-884.873 118.53,-860.051 96.3395,-841.649"/>
<polygon fill="none" stroke="black" points="98.549,-838.934 88.6393,-835.186 94.0487,-844.296 98.549,-838.934"/>
</g>
<!-- \\Textura\\Model\\SQLiteDBAdapter -->
<g id="node6" class="node"><title>\\Textura\\Model\\SQLiteDBAdapter</title>
<a xlink:href="src.textura.core.classes.model.SQLiteDBAdapter.html" xlink:title="SQLiteDBAdapter" target="_parent">
<polygon fill="none" stroke="black" points="300,-1050 182,-1050 182,-1014 300,-1014 300,-1050"/>
<text text-anchor="middle" x="241" y="-1029.2" font-family="Courier,monospace" font-size="11.00">SQLiteDBAdapter</text>
</a>
</g>
<!-- \\Textura\\Model\\DBAdapter -->
<g id="node7" class="node"><title>\\Textura\\Model\\DBAdapter</title>
<a xlink:href="src.textura.core.classes.model.DBAdapter.html" xlink:title="«abstract»&lt;br/&gt;DBAdapter" target="_parent">
<polygon fill="none" stroke="black" points="109.5,-1050 24.5,-1050 24.5,-1014 109.5,-1014 109.5,-1050"/>
<text text-anchor="start" x="33" y="-1035.7" font-family="Courier,monospace" font-size="11.00">«abstract»</text>
<text text-anchor="start" x="36.5" y="-1024.7" font-family="Courier,monospace" font-size="11.00">DBAdapter</text>
</a>
</g>
<!-- \\Textura\\Model\\SQLiteDBAdapter&#45;&gt;\\Textura\\Model\\DBAdapter -->
<g id="edge15" class="edge"><title>\\Textura\\Model\\SQLiteDBAdapter&#45;&gt;\\Textura\\Model\\DBAdapter</title>
<path fill="none" stroke="black" d="M181.769,-1032C161.694,-1032 139.358,-1032 119.83,-1032"/>
<polygon fill="none" stroke="black" points="119.602,-1028.5 109.602,-1032 119.602,-1035.5 119.602,-1028.5"/>
</g>
<!-- \\Textura\\ValidationRuleMatchesRegexp -->
<g id="node8" class="node"><title>\\Textura\\ValidationRuleMatchesRegexp</title>
<a xlink:href="src.textura.plugins.FormBuilder.classes.ValidationRuleMatchesRegexp.html" xlink:title="ValidationRuleMatchesRegexp" target="_parent">
<polygon fill="none" stroke="black" points="571.5,-1132 372.5,-1132 372.5,-1096 571.5,-1096 571.5,-1132"/>
<text text-anchor="middle" x="472" y="-1111.2" font-family="Courier,monospace" font-size="11.00">ValidationRuleMatchesRegexp</text>
</a>
</g>
<!-- \\Textura\\ValidationRule -->
<g id="node12" class="node"><title>\\Textura\\ValidationRule</title>
<a xlink:href="src.textura.plugins.FormBuilder.classes.ValidationRule.html" xlink:title="«abstract»&lt;br/&gt;ValidationRule" target="_parent">
<polygon fill="none" stroke="black" points="297,-888 185,-888 185,-852 297,-852 297,-888"/>
<text text-anchor="start" x="207" y="-873.7" font-family="Courier,monospace" font-size="11.00">«abstract»</text>
<text text-anchor="start" x="193.5" y="-862.7" font-family="Courier,monospace" font-size="11.00">ValidationRule</text>
</a>
</g>
<!-- \\Textura\\ValidationRuleMatchesRegexp&#45;&gt;\\Textura\\ValidationRule -->
<g id="edge5" class="edge"><title>\\Textura\\ValidationRuleMatchesRegexp&#45;&gt;\\Textura\\ValidationRule</title>
<path fill="none" stroke="black" d="M383.454,-1095.78C379.348,-1093.22 375.492,-1090.31 372,-1087 306.398,-1024.84 370.982,-958.808 308,-894 307.092,-893.066 306.145,-892.167 305.163,-891.304"/>
<polygon fill="none" stroke="black" points="307.176,-888.44 297.045,-885.342 303.033,-894.082 307.176,-888.44"/>
</g>
<!-- \\Textura\\FormBuilder -->
<g id="node9" class="node"><title>\\Textura\\FormBuilder</title>
<a xlink:href="src.textura.plugins.FormBuilder.classes.FormBuilder.html" xlink:title="FormBuilder" target="_parent">
<polygon fill="none" stroke="black" points="517.5,-1078 426.5,-1078 426.5,-1042 517.5,-1042 517.5,-1078"/>
<text text-anchor="middle" x="472" y="-1057.2" font-family="Courier,monospace" font-size="11.00">FormBuilder</text>
</a>
</g>
<!-- \\Textura\\Validator -->
<g id="node10" class="node"><title>\\Textura\\Validator</title>
<a xlink:href="src.textura.plugins.FormBuilder.classes.Validator.html" xlink:title="Validator" target="_parent">
<polygon fill="none" stroke="black" points="510.5,-1024 433.5,-1024 433.5,-988 510.5,-988 510.5,-1024"/>
<text text-anchor="middle" x="472" y="-1003.2" font-family="Courier,monospace" font-size="11.00">Validator</text>
</a>
</g>
<!-- \\Textura\\ValidationRuleInInterval -->
<g id="node11" class="node"><title>\\Textura\\ValidationRuleInInterval</title>
<a xlink:href="src.textura.plugins.FormBuilder.classes.ValidationRuleInInterval.html" xlink:title="ValidationRuleInInterval" target="_parent">
<polygon fill="none" stroke="black" points="561.5,-970 382.5,-970 382.5,-934 561.5,-934 561.5,-970"/>
<text text-anchor="middle" x="472" y="-949.2" font-family="Courier,monospace" font-size="11.00">ValidationRuleInInterval</text>
</a>
</g>
<!-- \\Textura\\ValidationRuleInInterval&#45;&gt;\\Textura\\ValidationRule -->
<g id="edge7" class="edge"><title>\\Textura\\ValidationRuleInInterval&#45;&gt;\\Textura\\ValidationRule</title>
<path fill="none" stroke="black" d="M398.588,-933.923C389.555,-931.179 380.508,-928.189 372,-925 342.406,-913.906 337.112,-906.305 308,-894 306.379,-893.315 304.73,-892.63 303.063,-891.949"/>
<polygon fill="none" stroke="black" points="303.951,-888.536 293.365,-888.094 301.365,-895.041 303.951,-888.536"/>
</g>
<!-- \\Textura\\ValidationRuleHasValue -->
<g id="node13" class="node"><title>\\Textura\\ValidationRuleHasValue</title>
<a xlink:href="src.textura.plugins.FormBuilder.classes.ValidationRuleHasValue.html" xlink:title="ValidationRuleHasValue" target="_parent">
<polygon fill="none" stroke="black" points="554.5,-916 389.5,-916 389.5,-880 554.5,-880 554.5,-916"/>
<text text-anchor="middle" x="472" y="-895.2" font-family="Courier,monospace" font-size="11.00">ValidationRuleHasValue</text>
</a>
</g>
<!-- \\Textura\\ValidationRuleHasValue&#45;&gt;\\Textura\\ValidationRule -->
<g id="edge9" class="edge"><title>\\Textura\\ValidationRuleHasValue&#45;&gt;\\Textura\\ValidationRule</title>
<path fill="none" stroke="black" d="M389.296,-888.01C362.307,-884.71 332.664,-881.086 307.09,-877.959"/>
<polygon fill="none" stroke="black" points="307.488,-874.481 297.137,-876.742 306.638,-881.43 307.488,-874.481"/>
</g>
<!-- \\Textura\\FormBuilderPlugin -->
<g id="node14" class="node"><title>\\Textura\\FormBuilderPlugin</title>
<a xlink:href="src.textura.plugins.FormBuilder.FormBuilderPlugin.html" xlink:title="FormBuilderPlugin" target="_parent">
<polygon fill="none" stroke="black" points="537.5,-808 406.5,-808 406.5,-772 537.5,-772 537.5,-808"/>
<text text-anchor="middle" x="472" y="-787.2" font-family="Courier,monospace" font-size="11.00">FormBuilderPlugin</text>
</a>
</g>
<!-- \\Textura\\Plugin -->
<g id="node19" class="node"><title>\\Textura\\Plugin</title>
<a xlink:href="src.textura.core.interfaces.Plugin.html" xlink:title="Plugin" target="_parent">
<polygon fill="none" stroke="black" points="269.5,-780 212.5,-780 212.5,-744 269.5,-744 269.5,-780"/>
<text text-anchor="middle" x="241" y="-759.2" font-family="Courier,monospace" font-size="11.00">Plugin</text>
</a>
</g>
<!-- \\Textura\\FormBuilderPlugin&#45;&gt;\\Textura\\Plugin -->
<g id="edge19" class="edge"><title>\\Textura\\FormBuilderPlugin&#45;&gt;\\Textura\\Plugin</title>
<path fill="none" stroke="black" stroke-dasharray="1,5" d="M406.296,-782.089C365.423,-777.091 314.036,-770.808 279.718,-766.612"/>
<polygon fill="none" stroke="black" points="279.996,-763.12 269.645,-765.38 279.147,-770.068 279.996,-763.12"/>
</g>
<!-- \\Textura\\ThemeColumn -->
<g id="node15" class="node"><title>\\Textura\\ThemeColumn</title>
<a xlink:href="src.textura.plugins.ThemeBuilder.classes.ThemeColumn.html" xlink:title="ThemeColumn" target="_parent">
<polygon fill="none" stroke="black" points="517.5,-862 426.5,-862 426.5,-826 517.5,-826 517.5,-862"/>
<text text-anchor="middle" x="472" y="-841.2" font-family="Courier,monospace" font-size="11.00">ThemeColumn</text>
</a>
</g>
<!-- \\Textura\\ThemeElement -->
<g id="node17" class="node"><title>\\Textura\\ThemeElement</title>
<a xlink:href="src.textura.plugins.ThemeBuilder.classes.ThemeElement.html" xlink:title="ThemeElement" target="_parent">
<polygon fill="none" stroke="black" points="290,-834 192,-834 192,-798 290,-798 290,-834"/>
<text text-anchor="middle" x="241" y="-813.2" font-family="Courier,monospace" font-size="11.00">ThemeElement</text>
</a>
</g>
<!-- \\Textura\\ThemeColumn&#45;&gt;\\Textura\\ThemeElement -->
<g id="edge11" class="edge"><title>\\Textura\\ThemeColumn&#45;&gt;\\Textura\\ThemeElement</title>
<path fill="none" stroke="black" d="M426.303,-838.535C390.261,-834.128 339.299,-827.897 300.095,-823.103"/>
<polygon fill="none" stroke="black" points="300.493,-819.626 290.142,-821.886 299.643,-826.574 300.493,-819.626"/>
</g>
<!-- \\Textura\\ThemeBuilder -->
<g id="node16" class="node"><title>\\Textura\\ThemeBuilder</title>
<a xlink:href="src.textura.plugins.ThemeBuilder.classes.ThemeBuilder.html" xlink:title="ThemeBuilder" target="_parent">
<polygon fill="none" stroke="black" points="521,-754 423,-754 423,-718 521,-718 521,-754"/>
<text text-anchor="middle" x="472" y="-733.2" font-family="Courier,monospace" font-size="11.00">ThemeBuilder</text>
</a>
</g>
<!-- \\Textura\\ThemeBuilderPlugin -->
<g id="node18" class="node"><title>\\Textura\\ThemeBuilderPlugin</title>
<a xlink:href="src.textura.plugins.ThemeBuilder.ThemeBuilderPlugin.html" xlink:title="ThemeBuilderPlugin" target="_parent">
<polygon fill="none" stroke="black" points="541,-700 403,-700 403,-664 541,-664 541,-700"/>
<text text-anchor="middle" x="472" y="-679.2" font-family="Courier,monospace" font-size="11.00">ThemeBuilderPlugin</text>
</a>
</g>
<!-- \\Textura\\ThemeBuilderPlugin&#45;&gt;\\Textura\\Plugin -->
<g id="edge21" class="edge"><title>\\Textura\\ThemeBuilderPlugin&#45;&gt;\\Textura\\Plugin</title>
<path fill="none" stroke="black" stroke-dasharray="1,5" d="M402.771,-699.443C392.4,-702.43 381.871,-705.656 372,-709 340.068,-719.819 304.689,-734.421 278.91,-745.558"/>
<polygon fill="none" stroke="black" points="277.3,-742.442 269.528,-749.642 280.093,-748.86 277.3,-742.442"/>
</g>
<!-- \\Textura\\Plugin&#45;&gt;\\Textura\\Singleton -->
<g id="edge13" class="edge"><title>\\Textura\\Plugin&#45;&gt;\\Textura\\Singleton</title>
<path fill="none" stroke="black" d="M212.365,-770.837C186.23,-779.194 146.479,-791.905 115.302,-801.874"/>
<polygon fill="none" stroke="black" points="113.968,-798.626 105.509,-805.006 116.1,-805.294 113.968,-798.626"/>
</g>
<!-- \\Textura\\Response -->
<g id="node21" class="node"><title>\\Textura\\Response</title>
<a xlink:href="src.textura.core.classes.Response.html" xlink:title="Response" target="_parent">
<polygon fill="none" stroke="black" points="507.5,-646 436.5,-646 436.5,-610 507.5,-610 507.5,-646"/>
<text text-anchor="middle" x="472" y="-625.2" font-family="Courier,monospace" font-size="11.00">Response</text>
</a>
</g>
<!-- \\Textura\\Controller -->
<g id="node22" class="node"><title>\\Textura\\Controller</title>
<a xlink:href="src.textura.core.classes.Controller.html" xlink:title="«abstract»&lt;br/&gt;Controller" target="_parent">
<polygon fill="none" stroke="black" points="283.5,-578 198.5,-578 198.5,-542 283.5,-542 283.5,-578"/>
<text text-anchor="start" x="207" y="-563.7" font-family="Courier,monospace" font-size="11.00">«abstract»</text>
<text text-anchor="start" x="207" y="-552.7" font-family="Courier,monospace" font-size="11.00">Controller</text>
</a>
</g>
<!-- \\Textura\\FileLogger -->
<g id="node23" class="node"><title>\\Textura\\FileLogger</title>
<a xlink:href="src.textura.core.classes.FileLogger.html" xlink:title="FileLogger" target="_parent">
<polygon fill="none" stroke="black" points="514,-592 430,-592 430,-556 514,-556 514,-592"/>
<text text-anchor="middle" x="472" y="-571.2" font-family="Courier,monospace" font-size="11.00">FileLogger</text>
</a>
</g>
<!-- \\Textura\\Session -->
<g id="node24" class="node"><title>\\Textura\\Session</title>
<a xlink:href="src.textura.core.classes.Session.html" xlink:title="Session" target="_parent">
<polygon fill="none" stroke="black" points="504,-538 440,-538 440,-502 504,-502 504,-538"/>
<text text-anchor="middle" x="472" y="-517.2" font-family="Courier,monospace" font-size="11.00">Session</text>
</a>
</g>
<!-- \\Textura\\Router -->
<g id="node25" class="node"><title>\\Textura\\Router</title>
<a xlink:href="src.textura.core.classes.Router.html" xlink:title="Router" target="_parent">
<polygon fill="none" stroke="black" points="500.5,-484 443.5,-484 443.5,-448 500.5,-448 500.5,-484"/>
<text text-anchor="middle" x="472" y="-463.2" font-family="Courier,monospace" font-size="11.00">Router</text>
</a>
</g>
<!-- \\Textura\\Installer -->
<g id="node26" class="node"><title>\\Textura\\Installer</title>
<a xlink:href="src.textura.core.classes.Installer.html" xlink:title="Installer" target="_parent">
<polygon fill="none" stroke="black" points="510.5,-430 433.5,-430 433.5,-394 510.5,-394 510.5,-430"/>
<text text-anchor="middle" x="472" y="-409.2" font-family="Courier,monospace" font-size="11.00">Installer</text>
</a>
</g>
<!-- \\Textura\\Installer&#45;&gt;\\Textura\\Controller -->
<g id="edge17" class="edge"><title>\\Textura\\Installer&#45;&gt;\\Textura\\Controller</title>
<path fill="none" stroke="black" d="M433.046,-415.986C413.39,-419.544 389.839,-426.274 372,-439 330.855,-468.352 347.278,-501.193 308,-533 303.377,-536.743 298.165,-540.033 292.747,-542.906"/>
<polygon fill="none" stroke="black" points="290.995,-539.866 283.503,-547.357 294.032,-546.173 290.995,-539.866"/>
</g>
<!-- \\Textura\\Current -->
<g id="node27" class="node"><title>\\Textura\\Current</title>
<a xlink:href="src.textura.core.classes.Current.html" xlink:title="Current" target="_parent">
<polygon fill="none" stroke="black" points="504,-376 440,-376 440,-340 504,-340 504,-376"/>
<text text-anchor="middle" x="472" y="-355.2" font-family="Courier,monospace" font-size="11.00">Current</text>
</a>
</g>
<!-- \\Textura\\Model -->
<g id="node28" class="node"><title>\\Textura\\Model</title>
<a xlink:href="src.textura.core.classes.Model.html" xlink:title="«abstract»&lt;br/&gt;Model" target="_parent">
<polygon fill="none" stroke="black" points="514.5,-322 429.5,-322 429.5,-286 514.5,-286 514.5,-322"/>
<text text-anchor="start" x="438" y="-307.7" font-family="Courier,monospace" font-size="11.00">«abstract»</text>
<text text-anchor="start" x="455" y="-296.7" font-family="Courier,monospace" font-size="11.00">Model</text>
</a>
</g>
<!-- \\Textura\\Request -->
<g id="node29" class="node"><title>\\Textura\\Request</title>
<a xlink:href="src.textura.core.classes.Request.html" xlink:title="Request" target="_parent">
<polygon fill="none" stroke="black" points="504,-268 440,-268 440,-232 504,-232 504,-268"/>
<text text-anchor="middle" x="472" y="-247.2" font-family="Courier,monospace" font-size="11.00">Request</text>
</a>
</g>
<!-- \\Textura\\ViewHelper -->
<g id="node30" class="node"><title>\\Textura\\ViewHelper</title>
<a xlink:href="src.textura.core.classes.ViewHelper.html" xlink:title="ViewHelper" target="_parent">
<polygon fill="none" stroke="black" points="514,-214 430,-214 430,-178 514,-178 514,-214"/>
<text text-anchor="middle" x="472" y="-193.2" font-family="Courier,monospace" font-size="11.00">ViewHelper</text>
</a>
</g>
<!-- \\Textura\\Textura -->
<g id="node31" class="node"><title>\\Textura\\Textura</title>
<a xlink:href="src.textura.core.classes.Textura.html" xlink:title="Textura" target="_parent">
<polygon fill="none" stroke="black" points="273,-524 209,-524 209,-488 273,-488 273,-524"/>
<text text-anchor="middle" x="241" y="-503.2" font-family="Courier,monospace" font-size="11.00">Textura</text>
</a>
</g>
<!-- \\Textura\\Textura&#45;&gt;\\Textura\\Singleton -->
<g id="edge27" class="edge"><title>\\Textura\\Textura&#45;&gt;\\Textura\\Singleton</title>
<path fill="none" stroke="black" stroke-dasharray="1,5" d="M208.946,-515.386C199.323,-519.528 189.334,-525.26 182,-533 110.916,-608.027 82.0369,-733.02 72.2666,-788.719"/>
<polygon fill="none" stroke="black" points="68.7615,-788.458 70.5604,-798.899 75.6652,-789.615 68.7615,-788.458"/>
</g>
<!-- \\Textura\\Configuration -->
<g id="node32" class="node"><title>\\Textura\\Configuration</title>
<a xlink:href="src.textura.core.classes.Configuration.html" xlink:title="Configuration" target="_parent">
<polygon fill="none" stroke="black" points="524,-160 420,-160 420,-124 524,-124 524,-160"/>
<text text-anchor="middle" x="472" y="-139.2" font-family="Courier,monospace" font-size="11.00">Configuration</text>
</a>
</g>
<!-- \\Textura\\Debugger -->
<g id="node33" class="node"><title>\\Textura\\Debugger</title>
<a xlink:href="src.textura.core.classes.Debugger.html" xlink:title="Debugger" target="_parent">
<polygon fill="none" stroke="black" points="507.5,-106 436.5,-106 436.5,-70 507.5,-70 507.5,-106"/>
<text text-anchor="middle" x="472" y="-85.2" font-family="Courier,monospace" font-size="11.00">Debugger</text>
</a>
</g>
<!-- \\Textura\\PathBuilder -->
<g id="node34" class="node"><title>\\Textura\\PathBuilder</title>
<a xlink:href="src.textura.core.classes.PathBuilder.html" xlink:title="PathBuilder" target="_parent">
<polygon fill="none" stroke="black" points="517.5,-52 426.5,-52 426.5,-16 517.5,-16 517.5,-52"/>
<text text-anchor="middle" x="472" y="-31.2" font-family="Courier,monospace" font-size="11.00">PathBuilder</text>
</a>
</g>
</g>
</svg>
