<?xml version="1.0" encoding="UTF-8" standalone="no"?>
<!DOCTYPE svg PUBLIC "-//W3C//DTD SVG 1.1//EN"
 "http://www.w3.org/Graphics/SVG/1.1/DTD/svg11.dtd">
<!-- Generated by graphviz version 2.28.0 (20110825.1113)
 -->
<!-- Title: G Pages: 1 -->
<svg width="596pt" height="960pt"
 viewBox="0.00 0.00 596.00 960.00" xmlns="http://www.w3.org/2000/svg" xmlns:xlink="http://www.w3.org/1999/xlink">
<g id="graph1" class="graph" transform="scale(1 1) rotate(0) translate(4 956)">
<title>G</title>
<polygon fill="white" stroke="white" points="-4,5 -4,-956 593,-956 593,5 -4,5"/>
<g id="graph2" class="cluster"><title>cluster_Textura</title>
<polyline fill="none" stroke="gray" points="20,-8 568,-8 "/>
<path fill="none" stroke="gray" d="M568,-8C574,-8 580,-14 580,-20"/>
<polyline fill="none" stroke="gray" points="580,-20 580,-932 "/>
<path fill="none" stroke="gray" d="M580,-932C580,-938 574,-944 568,-944"/>
<polyline fill="none" stroke="gray" points="568,-944 20,-944 "/>
<path fill="none" stroke="gray" d="M20,-944C14,-944 8,-938 8,-932"/>
<polyline fill="none" stroke="gray" points="8,-932 8,-20 "/>
<path fill="none" stroke="gray" d="M8,-20C8,-14 14,-8 20,-8"/>
<text text-anchor="middle" x="294" y="-931.2" font-family="Times,serif" font-size="11.00" fill="gray">Textura</text>
</g>
<g id="graph3" class="cluster"><title>cluster_Textura\Model</title>
<polyline fill="none" stroke="gray" points="28,-682 296,-682 "/>
<path fill="none" stroke="gray" d="M296,-682C302,-682 308,-688 308,-694"/>
<polyline fill="none" stroke="gray" points="308,-694 308,-904 "/>
<path fill="none" stroke="gray" d="M308,-904C308,-910 302,-916 296,-916"/>
<polyline fill="none" stroke="gray" points="296,-916 28,-916 "/>
<path fill="none" stroke="gray" d="M28,-916C22,-916 16,-910 16,-904"/>
<polyline fill="none" stroke="gray" points="16,-904 16,-694 "/>
<path fill="none" stroke="gray" d="M16,-694C16,-688 22,-682 28,-682"/>
<text text-anchor="middle" x="162" y="-903.2" font-family="Times,serif" font-size="11.00" fill="gray">Model</text>
</g>
<!-- \\Textura\\Model\\SQLiteLogger -->
<g id="node3" class="node"><title>\\Textura\\Model\\SQLiteLogger</title>
<a xlink:href="src.textura.core.classes.model.SQLiteLogger.html" xlink:title="SQLiteLogger" target="_parent">
<polygon fill="none" stroke="black" points="290,-888 192,-888 192,-852 290,-852 290,-888"/>
<text text-anchor="middle" x="241" y="-867.2" font-family="Courier,monospace" font-size="11.00">SQLiteLogger</text>
</a>
</g>
<!-- \\Textura\\Model\\ModelManager -->
<g id="node4" class="node"><title>\\Textura\\Model\\ModelManager</title>
<a xlink:href="src.textura.core.classes.model.ModelManager.html" xlink:title="ModelManager" target="_parent">
<polygon fill="none" stroke="black" points="290,-780 192,-780 192,-744 290,-744 290,-780"/>
<text text-anchor="middle" x="241" y="-759.2" font-family="Courier,monospace" font-size="11.00">ModelManager</text>
</a>
</g>
<!-- \\Textura\\Singleton -->
<g id="node16" class="node"><title>\\Textura\\Singleton</title>
<a xlink:href="src.textura.core.interfaces.Singleton.html" xlink:title="Singleton" target="_parent">
<polygon fill="none" stroke="black" points="105.5,-646 28.5,-646 28.5,-610 105.5,-610 105.5,-646"/>
<text text-anchor="middle" x="67" y="-625.2" font-family="Courier,monospace" font-size="11.00">Singleton</text>
</a>
</g>
<!-- \\Textura\\Model\\ModelManager&#45;&gt;\\Textura\\Singleton -->
<g id="edge17" class="edge"><title>\\Textura\\Model\\ModelManager&#45;&gt;\\Textura\\Singleton</title>
<path fill="none" stroke="black" stroke-dasharray="1,5" d="M197.015,-743.893C191.817,-741.154 186.692,-738.174 182,-735 147.054,-711.362 112.519,-676.985 90.7782,-653.622"/>
<polygon fill="none" stroke="black" points="93.2574,-651.147 83.9136,-646.153 88.1034,-655.884 93.2574,-651.147"/>
</g>
<!-- \\Textura\\Model\\DBManager -->
<g id="node5" class="node"><title>\\Textura\\Model\\DBManager</title>
<a xlink:href="src.textura.core.classes.model.DBManager.html" xlink:title="DBManager" target="_parent">
<polygon fill="none" stroke="black" points="279.5,-726 202.5,-726 202.5,-690 279.5,-690 279.5,-726"/>
<text text-anchor="middle" x="241" y="-705.2" font-family="Courier,monospace" font-size="11.00">DBManager</text>
</a>
</g>
<!-- \\Textura\\Model\\DBManager&#45;&gt;\\Textura\\Singleton -->
<g id="edge19" class="edge"><title>\\Textura\\Model\\DBManager&#45;&gt;\\Textura\\Singleton</title>
<path fill="none" stroke="black" stroke-dasharray="1,5" d="M202.319,-694.386C195.503,-691.732 188.5,-688.876 182,-686 157.943,-675.355 131.738,-662.141 110.525,-651.016"/>
<polygon fill="none" stroke="black" points="111.936,-647.803 101.459,-646.229 108.668,-653.993 111.936,-647.803"/>
</g>
<!-- \\Textura\\Model\\SQLiteDBAdapter -->
<g id="node6" class="node"><title>\\Textura\\Model\\SQLiteDBAdapter</title>
<a xlink:href="src.textura.core.classes.model.SQLiteDBAdapter.html" xlink:title="SQLiteDBAdapter" target="_parent">
<polygon fill="none" stroke="black" points="300,-834 182,-834 182,-798 300,-798 300,-834"/>
<text text-anchor="middle" x="241" y="-813.2" font-family="Courier,monospace" font-size="11.00">SQLiteDBAdapter</text>
</a>
</g>
<!-- \\Textura\\Model\\DBAdapter -->
<g id="node7" class="node"><title>\\Textura\\Model\\DBAdapter</title>
<a xlink:href="src.textura.core.classes.model.DBAdapter.html" xlink:title="«abstract»&lt;br/&gt;DBAdapter" target="_parent">
<polygon fill="none" stroke="black" points="109.5,-834 24.5,-834 24.5,-798 109.5,-798 109.5,-834"/>
<text text-anchor="start" x="33" y="-819.7" font-family="Courier,monospace" font-size="11.00">«abstract»</text>
<text text-anchor="start" x="36.5" y="-808.7" font-family="Courier,monospace" font-size="11.00">DBAdapter</text>
</a>
</g>
<!-- \\Textura\\Model\\SQLiteDBAdapter&#45;&gt;\\Textura\\Model\\DBAdapter -->
<g id="edge13" class="edge"><title>\\Textura\\Model\\SQLiteDBAdapter&#45;&gt;\\Textura\\Model\\DBAdapter</title>
<path fill="none" stroke="black" d="M181.769,-816C161.694,-816 139.358,-816 119.83,-816"/>
<polygon fill="none" stroke="black" points="119.602,-812.5 109.602,-816 119.602,-819.5 119.602,-812.5"/>
</g>
<!-- \\Textura\\ValidationRuleMatchesRegexp -->
<g id="node8" class="node"><title>\\Textura\\ValidationRuleMatchesRegexp</title>
<a xlink:href="src.textura.plugins.FormBuilder.classes.ValidationRuleMatchesRegexp.html" xlink:title="ValidationRuleMatchesRegexp" target="_parent">
<polygon fill="none" stroke="black" points="571.5,-916 372.5,-916 372.5,-880 571.5,-880 571.5,-916"/>
<text text-anchor="middle" x="472" y="-895.2" font-family="Courier,monospace" font-size="11.00">ValidationRuleMatchesRegexp</text>
</a>
</g>
<!-- \\Textura\\ValidationRule -->
<g id="node12" class="node"><title>\\Textura\\ValidationRule</title>
<a xlink:href="src.textura.plugins.FormBuilder.classes.ValidationRule.html" xlink:title="«abstract»&lt;br/&gt;ValidationRule" target="_parent">
<polygon fill="none" stroke="black" points="297,-672 185,-672 185,-636 297,-636 297,-672"/>
<text text-anchor="start" x="207" y="-657.7" font-family="Courier,monospace" font-size="11.00">«abstract»</text>
<text text-anchor="start" x="193.5" y="-646.7" font-family="Courier,monospace" font-size="11.00">ValidationRule</text>
</a>
</g>
<!-- \\Textura\\ValidationRuleMatchesRegexp&#45;&gt;\\Textura\\ValidationRule -->
<g id="edge5" class="edge"><title>\\Textura\\ValidationRuleMatchesRegexp&#45;&gt;\\Textura\\ValidationRule</title>
<path fill="none" stroke="black" d="M383.454,-879.779C379.348,-877.219 375.492,-874.308 372,-871 306.398,-808.845 370.982,-742.808 308,-678 307.092,-677.066 306.145,-676.167 305.163,-675.304"/>
<polygon fill="none" stroke="black" points="307.176,-672.44 297.045,-669.342 303.033,-678.082 307.176,-672.44"/>
</g>
<!-- \\Textura\\FormBuilder -->
<g id="node9" class="node"><title>\\Textura\\FormBuilder</title>
<a xlink:href="src.textura.plugins.FormBuilder.classes.FormBuilder.html" xlink:title="FormBuilder" target="_parent">
<polygon fill="none" stroke="black" points="517.5,-862 426.5,-862 426.5,-826 517.5,-826 517.5,-862"/>
<text text-anchor="middle" x="472" y="-841.2" font-family="Courier,monospace" font-size="11.00">FormBuilder</text>
</a>
</g>
<!-- \\Textura\\Validator -->
<g id="node10" class="node"><title>\\Textura\\Validator</title>
<a xlink:href="src.textura.plugins.FormBuilder.classes.Validator.html" xlink:title="Validator" target="_parent">
<polygon fill="none" stroke="black" points="510.5,-808 433.5,-808 433.5,-772 510.5,-772 510.5,-808"/>
<text text-anchor="middle" x="472" y="-787.2" font-family="Courier,monospace" font-size="11.00">Validator</text>
</a>
</g>
<!-- \\Textura\\ValidationRuleInInterval -->
<g id="node11" class="node"><title>\\Textura\\ValidationRuleInInterval</title>
<a xlink:href="src.textura.plugins.FormBuilder.classes.ValidationRuleInInterval.html" xlink:title="ValidationRuleInInterval" target="_parent">
<polygon fill="none" stroke="black" points="561.5,-754 382.5,-754 382.5,-718 561.5,-718 561.5,-754"/>
<text text-anchor="middle" x="472" y="-733.2" font-family="Courier,monospace" font-size="11.00">ValidationRuleInInterval</text>
</a>
</g>
<!-- \\Textura\\ValidationRuleInInterval&#45;&gt;\\Textura\\ValidationRule -->
<g id="edge7" class="edge"><title>\\Textura\\ValidationRuleInInterval&#45;&gt;\\Textura\\ValidationRule</title>
<path fill="none" stroke="black" d="M398.588,-717.923C389.555,-715.179 380.508,-712.189 372,-709 342.406,-697.906 337.112,-690.305 308,-678 306.379,-677.315 304.73,-676.63 303.063,-675.949"/>
<polygon fill="none" stroke="black" points="303.951,-672.536 293.365,-672.094 301.365,-679.041 303.951,-672.536"/>
</g>
<!-- \\Textura\\ValidationRuleHasValue -->
<g id="node13" class="node"><title>\\Textura\\ValidationRuleHasValue</title>
<a xlink:href="src.textura.plugins.FormBuilder.classes.ValidationRuleHasValue.html" xlink:title="ValidationRuleHasValue" target="_parent">
<polygon fill="none" stroke="black" points="554.5,-700 389.5,-700 389.5,-664 554.5,-664 554.5,-700"/>
<text text-anchor="middle" x="472" y="-679.2" font-family="Courier,monospace" font-size="11.00">ValidationRuleHasValue</text>
</a>
</g>
<!-- \\Textura\\ValidationRuleHasValue&#45;&gt;\\Textura\\ValidationRule -->
<g id="edge9" class="edge"><title>\\Textura\\ValidationRuleHasValue&#45;&gt;\\Textura\\ValidationRule</title>
<path fill="none" stroke="black" d="M389.296,-672.01C362.307,-668.71 332.664,-665.086 307.09,-661.959"/>
<polygon fill="none" stroke="black" points="307.488,-658.481 297.137,-660.742 306.638,-665.43 307.488,-658.481"/>
</g>
<!-- \\Textura\\FormBuilderPlugin -->
<g id="node14" class="node"><title>\\Textura\\FormBuilderPlugin</title>
<a xlink:href="src.textura.plugins.FormBuilder.FormBuilderPlugin.html" xlink:title="FormBuilderPlugin" target="_parent">
<polygon fill="none" stroke="black" points="537.5,-646 406.5,-646 406.5,-610 537.5,-610 537.5,-646"/>
<text text-anchor="middle" x="472" y="-625.2" font-family="Courier,monospace" font-size="11.00">FormBuilderPlugin</text>
</a>
</g>
<!-- \\Textura\\Plugin -->
<g id="node15" class="node"><title>\\Textura\\Plugin</title>
<a xlink:href="src.textura.core.interfaces.Plugin.html" xlink:title="Plugin" target="_parent">
<polygon fill="none" stroke="black" points="269.5,-618 212.5,-618 212.5,-582 269.5,-582 269.5,-618"/>
<text text-anchor="middle" x="241" y="-597.2" font-family="Courier,monospace" font-size="11.00">Plugin</text>
</a>
</g>
<!-- \\Textura\\FormBuilderPlugin&#45;&gt;\\Textura\\Plugin -->
<g id="edge15" class="edge"><title>\\Textura\\FormBuilderPlugin&#45;&gt;\\Textura\\Plugin</title>
<path fill="none" stroke="black" stroke-dasharray="1,5" d="M406.296,-620.089C365.423,-615.091 314.036,-608.808 279.718,-604.612"/>
<polygon fill="none" stroke="black" points="279.996,-601.12 269.645,-603.38 279.147,-608.068 279.996,-601.12"/>
</g>
<!-- \\Textura\\Plugin&#45;&gt;\\Textura\\Singleton -->
<g id="edge11" class="edge"><title>\\Textura\\Plugin&#45;&gt;\\Textura\\Singleton</title>
<path fill="none" stroke="black" d="M212.365,-604.499C186.343,-608.735 146.823,-615.168 115.707,-620.234"/>
<polygon fill="none" stroke="black" points="114.816,-616.833 105.509,-621.894 115.941,-623.742 114.816,-616.833"/>
</g>
<!-- \\Textura\\Response -->
<g id="node17" class="node"><title>\\Textura\\Response</title>
<a xlink:href="src.textura.core.classes.Response.html" xlink:title="Response" target="_parent">
<polygon fill="none" stroke="black" points="507.5,-592 436.5,-592 436.5,-556 507.5,-556 507.5,-592"/>
<text text-anchor="middle" x="472" y="-571.2" font-family="Courier,monospace" font-size="11.00">Response</text>
</a>
</g>
<!-- \\Textura\\Controller -->
<g id="node18" class="node"><title>\\Textura\\Controller</title>
<a xlink:href="src.textura.core.classes.Controller.html" xlink:title="«abstract»&lt;br/&gt;Controller" target="_parent">
<polygon fill="none" stroke="black" points="514.5,-538 429.5,-538 429.5,-502 514.5,-502 514.5,-538"/>
<text text-anchor="start" x="438" y="-523.7" font-family="Courier,monospace" font-size="11.00">«abstract»</text>
<text text-anchor="start" x="438" y="-512.7" font-family="Courier,monospace" font-size="11.00">Controller</text>
</a>
</g>
<!-- \\Textura\\FileLogger -->
<g id="node19" class="node"><title>\\Textura\\FileLogger</title>
<a xlink:href="src.textura.core.classes.FileLogger.html" xlink:title="FileLogger" target="_parent">
<polygon fill="none" stroke="black" points="514,-484 430,-484 430,-448 514,-448 514,-484"/>
<text text-anchor="middle" x="472" y="-463.2" font-family="Courier,monospace" font-size="11.00">FileLogger</text>
</a>
</g>
<!-- \\Textura\\Session -->
<g id="node20" class="node"><title>\\Textura\\Session</title>
<a xlink:href="src.textura.core.classes.Session.html" xlink:title="Session" target="_parent">
<polygon fill="none" stroke="black" points="504,-430 440,-430 440,-394 504,-394 504,-430"/>
<text text-anchor="middle" x="472" y="-409.2" font-family="Courier,monospace" font-size="11.00">Session</text>
</a>
</g>
<!-- \\Textura\\Router -->
<g id="node21" class="node"><title>\\Textura\\Router</title>
<a xlink:href="src.textura.core.classes.Router.html" xlink:title="Router" target="_parent">
<polygon fill="none" stroke="black" points="500.5,-376 443.5,-376 443.5,-340 500.5,-340 500.5,-376"/>
<text text-anchor="middle" x="472" y="-355.2" font-family="Courier,monospace" font-size="11.00">Router</text>
</a>
</g>
<!-- \\Textura\\Current -->
<g id="node22" class="node"><title>\\Textura\\Current</title>
<a xlink:href="src.textura.core.classes.Current.html" xlink:title="Current" target="_parent">
<polygon fill="none" stroke="black" points="504,-322 440,-322 440,-286 504,-286 504,-322"/>
<text text-anchor="middle" x="472" y="-301.2" font-family="Courier,monospace" font-size="11.00">Current</text>
</a>
</g>
<!-- \\Textura\\Model -->
<g id="node23" class="node"><title>\\Textura\\Model</title>
<a xlink:href="src.textura.core.classes.Model.html" xlink:title="«abstract»&lt;br/&gt;Model" target="_parent">
<polygon fill="none" stroke="black" points="514.5,-268 429.5,-268 429.5,-232 514.5,-232 514.5,-268"/>
<text text-anchor="start" x="438" y="-253.7" font-family="Courier,monospace" font-size="11.00">«abstract»</text>
<text text-anchor="start" x="455" y="-242.7" font-family="Courier,monospace" font-size="11.00">Model</text>
</a>
</g>
<!-- \\Textura\\Request -->
<g id="node24" class="node"><title>\\Textura\\Request</title>
<a xlink:href="src.textura.core.classes.Request.html" xlink:title="Request" target="_parent">
<polygon fill="none" stroke="black" points="504,-214 440,-214 440,-178 504,-178 504,-214"/>
<text text-anchor="middle" x="472" y="-193.2" font-family="Courier,monospace" font-size="11.00">Request</text>
</a>
</g>
<!-- \\Textura\\Textura -->
<g id="node25" class="node"><title>\\Textura\\Textura</title>
<a xlink:href="src.textura.core.classes.Textura.html" xlink:title="Textura" target="_parent">
<polygon fill="none" stroke="black" points="273,-564 209,-564 209,-528 273,-528 273,-564"/>
<text text-anchor="middle" x="241" y="-543.2" font-family="Courier,monospace" font-size="11.00">Textura</text>
</a>
</g>
<!-- \\Textura\\Textura&#45;&gt;\\Textura\\Singleton -->
<g id="edge21" class="edge"><title>\\Textura\\Textura&#45;&gt;\\Textura\\Singleton</title>
<path fill="none" stroke="black" stroke-dasharray="1,5" d="M208.959,-560.354C200.228,-564.417 190.732,-568.861 182,-573 159.7,-583.569 135.027,-595.449 114.355,-605.457"/>
<polygon fill="none" stroke="black" points="112.634,-602.401 105.161,-609.911 115.687,-608.701 112.634,-602.401"/>
</g>
<!-- \\Textura\\Configuration -->
<g id="node26" class="node"><title>\\Textura\\Configuration</title>
<a xlink:href="src.textura.core.classes.Configuration.html" xlink:title="Configuration" target="_parent">
<polygon fill="none" stroke="black" points="524,-160 420,-160 420,-124 524,-124 524,-160"/>
<text text-anchor="middle" x="472" y="-139.2" font-family="Courier,monospace" font-size="11.00">Configuration</text>
</a>
</g>
<!-- \\Textura\\Debugger -->
<g id="node27" class="node"><title>\\Textura\\Debugger</title>
<a xlink:href="src.textura.core.classes.Debugger.html" xlink:title="Debugger" target="_parent">
<polygon fill="none" stroke="black" points="507.5,-106 436.5,-106 436.5,-70 507.5,-70 507.5,-106"/>
<text text-anchor="middle" x="472" y="-85.2" font-family="Courier,monospace" font-size="11.00">Debugger</text>
</a>
</g>
<!-- \\Textura\\PathBuilder -->
<g id="node28" class="node"><title>\\Textura\\PathBuilder</title>
<a xlink:href="src.textura.core.classes.PathBuilder.html" xlink:title="PathBuilder" target="_parent">
<polygon fill="none" stroke="black" points="517.5,-52 426.5,-52 426.5,-16 517.5,-16 517.5,-52"/>
<text text-anchor="middle" x="472" y="-31.2" font-family="Courier,monospace" font-size="11.00">PathBuilder</text>
</a>
</g>
</g>
</svg>
